# xmcd
#
# Track frame offsets:
#	150
#	10607
#	22349
#	35391
#
# Disc length: 675 seconds
# Revision: 0
# Processed by: cddbd v1.5.2PL0 Copyright (c) Steve Scherf et al.
# Submitted via: dBpowerAMP V12.0
#
DISCID=2602a104
DTITLE=Caleb Klauder Country Band feat. Reeb Willms - Just a Little
DYEAR=2014
DGENRE=Country
TTITLE0=Been on the Rocks
TTITLE1=The Last Time I Saw You
TTITLE2=I'd Jump the Mississippi
TTITLE3=Just a Little
EXTD=
EXTT0=
EXTT1=
EXTT2=
EXTT3=
PLAYORDER=
